<svg xmlns="http://www.w3.org/2000/svg" xmlns:xlink="http://www.w3.org/1999/xlink" width="500" zoomAndPan="magnify" viewBox="0 0 375 374.999991" height="500" preserveAspectRatio="xMidYMid meet" version="1.0"><defs><g/><clipPath id="49b59de2da"><path d="M 108 171 L 274 171 L 274 178.808594 L 108 178.808594 Z M 108 171 " clip-rule="nonzero"/></clipPath><clipPath id="c04245a6c8"><path d="M 76.765625 146 L 298.015625 146 L 298.015625 178.808594 L 76.765625 178.808594 Z M 76.765625 146 " clip-rule="nonzero"/></clipPath></defs><rect x="-37.5" width="450" fill="#ffffff" y="-37.499999" height="449.999989" fill-opacity="1"/><rect x="-37.5" width="450" fill="#000000" y="-37.499999" height="449.999989" fill-opacity="1"/><g clip-path="url(#49b59de2da)"><path fill="#ed2323" d="M 116.117188 177.414062 C 122.132812 177.789062 128.132812 178.15625 134.136719 178.46875 C 134.648438 178.234375 135.410156 178.082031 136.542969 178.007812 C 167.40625 176.429688 202.007812 175.546875 273.6875 171.820312 C 261.230469 170.984375 202.339844 173.066406 165.488281 174.222656 C 147.792969 174.777344 130.089844 175.515625 112.414062 176.589844 C 112.089844 176.597656 110.320312 176.761719 108.355469 177.027344 C 110.957031 177.113281 113.550781 177.246094 116.117188 177.414062 Z M 116.117188 177.414062 " fill-opacity="1" fill-rule="nonzero"/></g><g clip-path="url(#c04245a6c8)"><path fill="#ffffff" d="M 297.824219 178.1875 C 297.4375 177.148438 297.042969 176.132812 296.449219 175.210938 C 297.054688 174.328125 297.300781 173.347656 297.214844 172.140625 C 297.179688 171.800781 297.121094 171.46875 297.035156 171.136719 C 296.875 170.449219 296.664062 169.5 296.980469 169.175781 L 297.015625 169.136719 C 297.148438 168.996094 297.238281 168.832031 297.285156 168.644531 C 297.300781 168.570312 297.3125 168.5 297.320312 168.433594 L 297.320312 168.339844 C 297.300781 166.183594 296.800781 164.785156 294.320312 163.976562 C 292.757812 163.464844 290.917969 163.457031 289.292969 163.449219 L 288.632812 163.449219 C 286.257812 163.425781 283.886719 163.304688 281.632812 163.105469 C 280.101562 162.855469 278.554688 162.316406 277.058594 161.800781 C 276.570312 161.625 276.085938 161.460938 275.605469 161.300781 C 274.09375 160.8125 272.578125 160.308594 271.066406 159.808594 C 268.527344 158.972656 265.894531 158.105469 263.292969 157.269531 C 253.988281 154.277344 244.039062 151.207031 233.832031 149.414062 C 215.332031 145.808594 197.378906 145.058594 180.484375 147.1875 C 163.910156 149.277344 149.125 157.078125 134.832031 164.613281 L 132.066406 166.070312 C 122.886719 166.109375 110.9375 166.582031 99.652344 169.851562 C 92.847656 171.820312 85.84375 174.535156 78.820312 177.921875 L 76.929688 178.832031 L 82.433594 178.820312 L 82.519531 178.785156 C 87.136719 176.789062 94.425781 173.957031 99.433594 172.40625 C 110.492188 168.976562 122.285156 168.484375 132.359375 168.453125 C 132.554688 168.453125 132.738281 168.410156 132.910156 168.320312 L 132.941406 168.300781 C 133.976562 167.757812 135.007812 167.21875 136.035156 166.675781 C 149.894531 159.363281 164.230469 151.804688 180.1875 149.621094 C 196.664062 147.367188 214.523438 148.078125 233.289062 151.738281 C 243.304688 153.496094 253.277344 156.566406 262.632812 159.558594 C 265.476562 160.464844 268.355469 161.414062 271.140625 162.335938 L 274.503906 163.445312 L 276.074219 163.988281 C 277.738281 164.566406 279.464844 165.167969 281.210938 165.441406 L 281.296875 165.453125 L 281.429688 165.472656 C 283.796875 165.691406 286.394531 165.8125 289.386719 165.839844 C 290.839844 165.851562 292.285156 166 293.710938 166.277344 C 294.289062 166.382812 294.582031 166.589844 294.734375 166.894531 C 291.417969 166.90625 288.191406 167.609375 285.445312 168.304688 L 284.679688 168.5 C 282.609375 169.007812 280.261719 169.59375 278.421875 170.707031 C 278.066406 170.925781 277.859375 171.277344 277.851562 171.636719 C 277.839844 171.761719 277.847656 171.886719 277.871094 172.011719 C 278.707031 176.085938 283.171875 176.390625 284.636719 176.492188 C 288.132812 176.730469 291.398438 176.664062 294.335938 176.292969 C 294.890625 177.039062 295.261719 177.871094 295.527344 178.535156 L 295.648438 178.832031 L 298.0625 178.832031 Z M 294.070312 173.9375 C 291.753906 174.222656 289.347656 174.222656 286.875 174.1875 L 286.335938 174.1875 C 284.152344 174.175781 281.472656 174.164062 280.492188 172.320312 C 281.699219 171.761719 283.078125 171.402344 284.414062 171.050781 L 285.46875 170.773438 C 288.996094 169.796875 291.894531 169.328125 294.515625 169.292969 C 294.480469 169.851562 294.582031 170.449219 294.671875 171.039062 C 294.90625 172.492188 294.984375 173.425781 294.070312 173.9375 Z M 294.070312 173.9375 " fill-opacity="1" fill-rule="nonzero"/></g><path fill="#ffffff" d="M 258.265625 166.25 C 258.265625 166.25 256.304688 167 255.449219 167.164062 C 254.007812 167.4375 249.074219 167.992188 249.074219 167.992188 C 254.035156 168.417969 275.085938 167.113281 274.164062 167.113281 C 269.191406 167.113281 262.140625 166.574219 258.265625 166.25 Z M 258.265625 166.25 " fill-opacity="1" fill-rule="nonzero"/><path fill="#ffffff" d="M 259.566406 161.851562 C 260.347656 161.054688 259.585938 160.613281 259.375 160.539062 C 238.8125 153.652344 216.488281 149.886719 194.6875 150.238281 C 192.875 150.273438 191.066406 150.324219 189.265625 150.410156 C 175.808594 151.0625 162.671875 155.226562 150.644531 161.363281 L 150.625 161.363281 C 150.394531 161.472656 150.160156 161.59375 149.941406 161.714844 C 145.890625 163.824219 141.960938 166.140625 138.15625 168.664062 C 137.148438 169.398438 137.359375 169.949219 138.472656 170.097656 C 139.726562 170.195312 141.691406 170.148438 143.257812 170.164062 C 145.21875 170.191406 153.054688 170.050781 161.15625 169.882812 C 168.203125 169.738281 175.445312 169.574219 179.210938 169.453125 C 192.058594 169.0625 204.878906 168.65625 217.734375 168.453125 C 224.699219 168.339844 231.664062 168.191406 238.613281 167.820312 C 242.886719 167.597656 247.632812 167.617188 251.738281 166.28125 C 254.703125 165.375 257.371094 164.074219 259.566406 161.851562 Z M 140.511719 168.835938 C 142.496094 167.570312 144.519531 166.355469 146.578125 165.183594 C 146.160156 166.257812 146.160156 167.457031 146.785156 168.722656 C 144.722656 168.789062 142.59375 168.921875 140.511719 168.835938 Z M 189.640625 167.589844 C 182.105469 167.847656 174.570312 168.171875 167.027344 168.351562 L 161.132812 168.476562 L 156.488281 168.566406 C 157.621094 166.523438 157.570312 164.882812 156.992188 163.691406 C 156.324219 162.277344 154.949219 161.480469 153.976562 161.320312 C 165.058594 156.023438 176.996094 152.492188 189.253906 151.84375 C 191.066406 151.75 192.890625 151.683594 194.707031 151.652344 C 192.363281 156.671875 190.972656 162.242188 189.640625 167.589844 Z M 197.015625 167.621094 L 195.554688 167.636719 C 195.941406 163.535156 197.539062 157.167969 198.472656 153.164062 C 198.472656 153.164062 197.386719 163.648438 197.015625 167.621094 Z M 232.066406 166.675781 C 223.09375 166.992188 214.113281 167.078125 205.140625 167.183594 L 202.640625 167.230469 C 202.699219 162.050781 203.136719 156.878906 203.441406 151.710938 C 211.722656 151.992188 219.949219 152.824219 228.121094 154.203125 C 228.136719 154.222656 228.15625 154.242188 228.175781 154.257812 C 232.417969 157.914062 236.351562 162.023438 239.980469 166.316406 C 237.339844 166.476562 234.699219 166.582031 232.066406 166.675781 Z M 243.925781 166.039062 C 243.203125 166.097656 242.472656 166.144531 241.746094 166.195312 C 238.367188 162.144531 234.722656 158.21875 230.792969 154.664062 C 239.960938 156.335938 248.96875 158.625 257.824219 161.535156 C 255.957031 163.160156 253.78125 164.160156 251.367188 164.902344 C 248.953125 165.644531 246.394531 165.824219 243.925781 166.039062 Z M 243.925781 166.039062 " fill-opacity="1" fill-rule="nonzero"/><g fill="#ffffff" fill-opacity="1"><g transform="translate(76.148835, 207.406436)"><g><path d="M 23.507812 -13.613281 L 26.925781 -13.613281 C 26.925781 -18.644531 22.367188 -20.421875 15.15625 -20.421875 C 6.605469 -20.421875 2.714844 -18.441406 2.714844 -14.753906 L 2.714844 -14.484375 C 2.714844 -9.960938 6.371094 -9.355469 14.417969 -8.515625 C 23.171875 -7.710938 23.203125 -6.503906 23.203125 -5.96875 L 23.203125 -5.566406 C 23.203125 -3.21875 18.175781 -3.019531 14.453125 -3.019531 C 8.753906 -3.019531 6.101562 -4.527344 6.101562 -6.941406 L 2.683594 -6.941406 C 2.683594 -2.449219 6.574219 0.335938 14.453125 0.335938 C 22.871094 0.335938 26.726562 -1.242188 26.726562 -5.667969 L 26.726562 -6.003906 C 26.726562 -10.5625 22.230469 -11.199219 14.621094 -11.902344 C 6.269531 -12.675781 6.238281 -13.714844 6.238281 -14.519531 L 6.238281 -14.820312 C 6.238281 -16.429688 10.394531 -17.066406 15.15625 -17.066406 C 19.917969 -17.066406 23.507812 -16.195312 23.507812 -13.613281 Z M 23.507812 -13.613281 "/></g></g></g><g fill="#ffffff" fill-opacity="1"><g transform="translate(108.704499, 207.406436)"><g><path d="M 15.15625 0.335938 C 25.6875 0.335938 27.597656 -4.695312 27.597656 -9.792969 L 27.597656 -20.050781 L 23.875 -20.050781 L 23.707031 -9.320312 C 23.707031 -5.601562 21.460938 -3.253906 15.15625 -3.253906 C 9.054688 -3.253906 6.605469 -5.769531 6.605469 -9.320312 L 6.605469 -20.050781 L 2.882812 -20.050781 L 2.714844 -9.320312 C 2.714844 -4.460938 4.796875 0.335938 15.15625 0.335938 Z M 15.15625 0.335938 "/></g></g></g><g fill="#ffffff" fill-opacity="1"><g transform="translate(142.165402, 207.406436)"><g><path d="M 27.5625 -20.121094 L 22.703125 -20.121094 L 13.011719 -11.804688 L 7.578125 -11.804688 L 7.578125 -20.121094 L 4.15625 -20.121094 L 4.15625 0 L 7.578125 0 L 7.578125 -8.449219 L 12.441406 -8.449219 L 22.300781 0 L 27.328125 0 L 16.128906 -10.058594 Z M 27.5625 -20.121094 "/></g></g></g><g fill="#ffffff" fill-opacity="1"><g transform="translate(173.111758, 207.406436)"><g><path d="M 25.148438 -20.121094 L 25.148438 -11.5 L 7.578125 -11.5 L 7.578125 -20.121094 L 4.15625 -20.121094 L 4.15625 0 L 7.578125 0 L 7.578125 -8.617188 L 25.148438 -8.617188 L 25.148438 0 L 28.570312 0 L 28.570312 -20.121094 Z M 25.148438 -20.121094 "/></g></g></g><g fill="#ffffff" fill-opacity="1"><g transform="translate(208.785461, 207.406436)"><g><path d="M 25.351562 -17.066406 L 25.351562 -20.121094 L 4.15625 -20.121094 L 4.15625 0 L 25.351562 0 L 25.351562 -3.050781 L 7.578125 -3.050781 L 7.578125 -8.28125 L 23.273438 -8.28125 L 23.273438 -11.335938 L 7.578125 -11.335938 L 7.578125 -17.066406 Z M 25.351562 -17.066406 "/></g></g></g><g fill="#ffffff" fill-opacity="1"><g transform="translate(239.128324, 207.406436)"><g><path d="M 27.964844 -14.25 L 27.964844 -14.621094 C 27.964844 -18.242188 25.617188 -20.121094 21.695312 -20.121094 L 4.15625 -20.121094 L 4.15625 0 L 7.8125 0 L 7.8125 -7.78125 L 20.289062 -7.78125 C 23.675781 -7.78125 23.675781 -5.699219 23.675781 -4.125 L 23.675781 -1.878906 C 23.675781 -1.273438 23.707031 -0.605469 23.808594 0 L 27.730469 0 C 27.628906 -0.605469 27.5625 -1.273438 27.5625 -2.011719 L 27.5625 -4.394531 C 27.5625 -6.472656 26.726562 -8.28125 24.78125 -9.355469 C 26.691406 -9.960938 27.964844 -11.335938 27.964844 -14.25 Z M 7.8125 -11.367188 L 7.8125 -16.765625 L 21.695312 -16.765625 C 23.976562 -16.765625 24.480469 -15.59375 24.480469 -14.621094 L 24.480469 -14.25 C 24.480469 -12.675781 23.605469 -11.367188 21.695312 -11.367188 Z M 7.8125 -11.367188 "/></g></g></g><g fill="#ffffff" fill-opacity="1"><g transform="translate(272.555713, 207.406436)"><g><path d="M 22.199219 0 L 26.121094 0 L 15.125 -20.019531 L 15.15625 -20.121094 L 11.132812 -20.121094 L 11.199219 -20.019531 L 0.167969 0 L 4.089844 0 L 6.070312 -3.589844 L 20.21875 -3.589844 Z M 7.914062 -6.941406 L 13.144531 -16.464844 L 18.375 -6.941406 Z M 7.914062 -6.941406 "/></g></g></g><g fill="#ed2323" fill-opacity="1"><g transform="translate(93.146724, 226.641621)"><g><path d="M 10.96875 -4.859375 C 11.046875 -4.890625 11.097656 -4.980469 11.085938 -5.1875 C 11.078125 -5.546875 11.058594 -5.898438 11.046875 -6.257812 C 11.046875 -6.339844 11.039062 -6.417969 11.007812 -6.488281 C 10.9375 -6.617188 10.65625 -6.679688 10.539062 -6.71875 C 10.378906 -6.777344 10.207031 -6.816406 10.039062 -6.867188 C 9.878906 -6.917969 9.707031 -6.9375 9.539062 -6.988281 C 9.027344 -7.109375 8.527344 -7.207031 8.007812 -7.25 C 7.839844 -7.269531 7.667969 -7.257812 7.488281 -7.269531 C 7.316406 -7.277344 7.148438 -7.308594 6.96875 -7.308594 C 6.796875 -7.308594 6.628906 -7.289062 6.457031 -7.277344 C 5.109375 -7.21875 3.6875 -6.949219 2.5 -6.289062 C 2.058594 -6.046875 1.628906 -5.699219 1.289062 -5.339844 C 1.167969 -5.207031 1.070312 -5.070312 0.96875 -4.9375 C 0.601562 -4.390625 0.378906 -3.660156 0.53125 -2.980469 C 0.570312 -2.820312 0.640625 -2.660156 0.710938 -2.5 C 1.289062 -1.199219 2.640625 -0.53125 3.929688 -0.128906 C 4.089844 -0.078125 4.25 -0.03125 4.417969 0.0117188 C 4.589844 0.0507812 4.757812 0.078125 4.929688 0.109375 C 5.949219 0.308594 6.96875 0.351562 8.007812 0.261719 C 8.179688 0.238281 8.359375 0.25 8.527344 0.230469 C 8.996094 0.160156 9.457031 0.0507812 9.90625 -0.0898438 C 10.167969 -0.171875 10.828125 -0.269531 10.976562 -0.511719 C 11.007812 -0.550781 11.015625 -0.601562 11.015625 -0.648438 C 11.046875 -1.140625 11.128906 -1.71875 11.039062 -2.199219 C 10.878906 -2.160156 10.738281 -2 10.585938 -1.898438 C 10.449219 -1.800781 10.308594 -1.691406 10.136719 -1.609375 C 9.046875 -1.039062 7.777344 -0.839844 6.558594 -0.910156 C 5.199219 -0.988281 3.558594 -1.351562 2.71875 -2.53125 C 2.28125 -3.140625 2.269531 -3.859375 2.710938 -4.46875 C 3.929688 -6.1875 6.75 -6.289062 8.597656 -5.917969 C 9.128906 -5.808594 9.667969 -5.636719 10.136719 -5.386719 C 10.296875 -5.296875 10.746094 -4.808594 10.96875 -4.859375 Z M 10.96875 -4.859375 "/></g></g></g><g fill="#ed2323" fill-opacity="1"><g transform="translate(105.112183, 226.641621)"><g><path d="M 0.289062 -0.0117188 C 0.328125 0.03125 0.378906 0.03125 0.429688 0.0390625 C 0.929688 0.0585938 1.480469 0.179688 1.960938 0.0195312 C 2.550781 -0.160156 2.429688 -1.109375 3.121094 -1.109375 C 4.207031 -1.109375 5.296875 -1.089844 6.386719 -1.089844 C 6.929688 -1.089844 7.476562 -1.089844 8.019531 -1.109375 C 8.449219 -1.121094 8.988281 -1.238281 9.40625 -1.148438 C 9.847656 -1.050781 9.859375 -0.398438 10.167969 -0.140625 C 10.386719 0.0585938 10.726562 0.0585938 11.027344 0.0585938 C 11.328125 0.0507812 11.636719 0.0390625 11.9375 0.0390625 C 11.976562 0.0390625 12.015625 0.0390625 12.046875 0.0195312 C 12.128906 -0.0390625 12.066406 -0.171875 12.007812 -0.25 C 10.539062 -2.230469 9.15625 -4.277344 7.886719 -6.398438 C 7.726562 -6.679688 7.527344 -6.976562 7.21875 -7.066406 C 7.066406 -7.117188 6.898438 -7.097656 6.738281 -7.089844 C 6.179688 -7.039062 5.058594 -7.179688 4.71875 -6.667969 C 3.4375 -4.738281 2.148438 -2.808594 0.871094 -0.890625 C 0.769531 -0.75 0.128906 -0.199219 0.289062 -0.0117188 Z M 3.917969 -2.589844 C 3.898438 -2.628906 3.890625 -2.660156 3.890625 -2.699219 C 3.898438 -2.78125 3.949219 -2.839844 4 -2.910156 C 4.378906 -3.390625 4.75 -3.890625 5.097656 -4.410156 C 5.277344 -4.679688 5.449219 -4.949219 5.617188 -5.21875 C 5.707031 -5.359375 5.957031 -5.976562 6.097656 -6.027344 C 6.417969 -6.148438 6.988281 -4.859375 7.148438 -4.597656 C 7.546875 -4 7.96875 -3.410156 8.40625 -2.839844 C 8.457031 -2.78125 8.507812 -2.699219 8.496094 -2.628906 C 8.429688 -2.289062 7.398438 -2.558594 7.167969 -2.570312 C 6.257812 -2.648438 5.320312 -2.578125 4.410156 -2.460938 C 4.300781 -2.449219 4.1875 -2.429688 4.089844 -2.46875 C 4.019531 -2.488281 3.949219 -2.53125 3.917969 -2.589844 Z M 3.917969 -2.589844 "/></g></g></g><g fill="#ed2323" fill-opacity="1"><g transform="translate(117.907315, 226.641621)"><g><path d="M 11.246094 -0.398438 C 10.855469 -0.789062 10.46875 -1.179688 10.097656 -1.578125 C 9.90625 -1.769531 9.738281 -1.96875 9.558594 -2.160156 C 9.378906 -2.328125 9.15625 -2.460938 9.007812 -2.660156 C 8.988281 -2.6875 8.96875 -2.71875 8.976562 -2.75 C 8.988281 -2.847656 9.457031 -2.878906 9.546875 -2.898438 C 9.757812 -2.960938 9.976562 -3.027344 10.167969 -3.148438 C 10.316406 -3.238281 10.46875 -3.347656 10.597656 -3.480469 C 10.667969 -3.558594 10.925781 -3.777344 10.925781 -3.898438 C 11.328125 -4.578125 11.296875 -5.507812 10.789062 -6.117188 C 10.476562 -6.488281 10.007812 -6.71875 9.539062 -6.839844 C 9.058594 -6.957031 8.558594 -6.96875 8.066406 -6.976562 C 5.789062 -7.039062 3.5 -7.039062 1.21875 -6.988281 C 1.148438 -6.988281 1.078125 -6.988281 1.039062 -6.9375 C 1 -6.898438 1 -6.828125 1 -6.777344 L 1 -3.1875 C 1 -2.589844 1 -1.988281 1 -1.398438 L 1 -0.5 C 1 -0.320312 0.859375 -0.0195312 1.109375 0.0507812 C 1.21875 0.078125 1.320312 0.0507812 1.429688 0.03125 C 1.800781 -0.0507812 2.1875 -0.0390625 2.558594 0.0390625 C 2.628906 0.0585938 2.699219 0.078125 2.757812 0.0585938 C 2.890625 0.0117188 2.910156 -0.160156 2.898438 -0.289062 C 2.898438 -0.699219 2.890625 -1.109375 2.878906 -1.507812 C 2.871094 -1.71875 2.871094 -1.929688 2.859375 -2.140625 C 2.859375 -2.28125 2.859375 -2.410156 2.847656 -2.550781 C 2.847656 -2.589844 2.847656 -2.640625 2.878906 -2.667969 C 2.96875 -2.757812 3.339844 -2.6875 3.46875 -2.6875 C 3.699219 -2.6875 3.917969 -2.699219 4.148438 -2.699219 C 4.570312 -2.699219 4.988281 -2.699219 5.398438 -2.710938 L 6.179688 -2.710938 C 6.378906 -2.71875 6.578125 -2.71875 6.777344 -2.648438 C 7.066406 -2.558594 7.289062 -2.320312 7.488281 -2.089844 L 9.046875 -0.398438 C 9.175781 -0.261719 9.308594 -0.109375 9.488281 -0.0390625 C 9.636719 0.0195312 9.808594 0.0195312 9.976562 0.0195312 L 11.46875 0.0195312 C 11.507812 0.0195312 11.558594 0.0117188 11.566406 -0.0195312 C 11.578125 -0.0585938 11.546875 -0.078125 11.527344 -0.109375 C 11.4375 -0.210938 11.335938 -0.300781 11.246094 -0.398438 Z M 6.097656 -4 L 5.648438 -4 C 4.796875 -4.007812 3.949219 -4.007812 3.097656 -4.007812 C 2.980469 -4.007812 2.878906 -4.039062 2.878906 -4.167969 C 2.878906 -4.480469 2.878906 -4.777344 2.871094 -5.089844 C 2.871094 -5.21875 2.78125 -5.597656 2.910156 -5.679688 C 2.96875 -5.730469 3.097656 -5.699219 3.179688 -5.699219 C 3.300781 -5.699219 3.417969 -5.679688 3.550781 -5.6875 L 4.070312 -5.6875 C 4.949219 -5.699219 5.820312 -5.6875 6.699219 -5.6875 C 7.25 -5.6875 7.796875 -5.699219 8.347656 -5.609375 C 8.585938 -5.570312 8.835938 -5.507812 9.039062 -5.359375 C 9.238281 -5.21875 9.378906 -4.957031 9.316406 -4.71875 C 9.289062 -4.558594 9.15625 -4.417969 9.019531 -4.328125 C 8.867188 -4.238281 8.707031 -4.1875 8.539062 -4.148438 C 7.757812 -3.96875 6.917969 -3.980469 6.097656 -4 Z M 6.097656 -4 "/></g></g></g><g fill="#ed2323" fill-opacity="1"><g transform="translate(130.442551, 226.641621)"><g/></g></g><g fill="#ed2323" fill-opacity="1"><g transform="translate(135.890576, 226.641621)"><g><path d="M 11.246094 -0.398438 C 10.855469 -0.789062 10.46875 -1.179688 10.097656 -1.578125 C 9.90625 -1.769531 9.738281 -1.96875 9.558594 -2.160156 C 9.378906 -2.328125 9.15625 -2.460938 9.007812 -2.660156 C 8.988281 -2.6875 8.96875 -2.71875 8.976562 -2.75 C 8.988281 -2.847656 9.457031 -2.878906 9.546875 -2.898438 C 9.757812 -2.960938 9.976562 -3.027344 10.167969 -3.148438 C 10.316406 -3.238281 10.46875 -3.347656 10.597656 -3.480469 C 10.667969 -3.558594 10.925781 -3.777344 10.925781 -3.898438 C 11.328125 -4.578125 11.296875 -5.507812 10.789062 -6.117188 C 10.476562 -6.488281 10.007812 -6.71875 9.539062 -6.839844 C 9.058594 -6.957031 8.558594 -6.96875 8.066406 -6.976562 C 5.789062 -7.039062 3.5 -7.039062 1.21875 -6.988281 C 1.148438 -6.988281 1.078125 -6.988281 1.039062 -6.9375 C 1 -6.898438 1 -6.828125 1 -6.777344 L 1 -3.1875 C 1 -2.589844 1 -1.988281 1 -1.398438 L 1 -0.5 C 1 -0.320312 0.859375 -0.0195312 1.109375 0.0507812 C 1.21875 0.078125 1.320312 0.0507812 1.429688 0.03125 C 1.800781 -0.0507812 2.1875 -0.0390625 2.558594 0.0390625 C 2.628906 0.0585938 2.699219 0.078125 2.757812 0.0585938 C 2.890625 0.0117188 2.910156 -0.160156 2.898438 -0.289062 C 2.898438 -0.699219 2.890625 -1.109375 2.878906 -1.507812 C 2.871094 -1.71875 2.871094 -1.929688 2.859375 -2.140625 C 2.859375 -2.28125 2.859375 -2.410156 2.847656 -2.550781 C 2.847656 -2.589844 2.847656 -2.640625 2.878906 -2.667969 C 2.96875 -2.757812 3.339844 -2.6875 3.46875 -2.6875 C 3.699219 -2.6875 3.917969 -2.699219 4.148438 -2.699219 C 4.570312 -2.699219 4.988281 -2.699219 5.398438 -2.710938 L 6.179688 -2.710938 C 6.378906 -2.71875 6.578125 -2.71875 6.777344 -2.648438 C 7.066406 -2.558594 7.289062 -2.320312 7.488281 -2.089844 L 9.046875 -0.398438 C 9.175781 -0.261719 9.308594 -0.109375 9.488281 -0.0390625 C 9.636719 0.0195312 9.808594 0.0195312 9.976562 0.0195312 L 11.46875 0.0195312 C 11.507812 0.0195312 11.558594 0.0117188 11.566406 -0.0195312 C 11.578125 -0.0585938 11.546875 -0.078125 11.527344 -0.109375 C 11.4375 -0.210938 11.335938 -0.300781 11.246094 -0.398438 Z M 6.097656 -4 L 5.648438 -4 C 4.796875 -4.007812 3.949219 -4.007812 3.097656 -4.007812 C 2.980469 -4.007812 2.878906 -4.039062 2.878906 -4.167969 C 2.878906 -4.480469 2.878906 -4.777344 2.871094 -5.089844 C 2.871094 -5.21875 2.78125 -5.597656 2.910156 -5.679688 C 2.96875 -5.730469 3.097656 -5.699219 3.179688 -5.699219 C 3.300781 -5.699219 3.417969 -5.679688 3.550781 -5.6875 L 4.070312 -5.6875 C 4.949219 -5.699219 5.820312 -5.6875 6.699219 -5.6875 C 7.25 -5.6875 7.796875 -5.699219 8.347656 -5.609375 C 8.585938 -5.570312 8.835938 -5.507812 9.039062 -5.359375 C 9.238281 -5.21875 9.378906 -4.957031 9.316406 -4.71875 C 9.289062 -4.558594 9.15625 -4.417969 9.019531 -4.328125 C 8.867188 -4.238281 8.707031 -4.1875 8.539062 -4.148438 C 7.757812 -3.96875 6.917969 -3.980469 6.097656 -4 Z M 6.097656 -4 "/></g></g></g><g fill="#ed2323" fill-opacity="1"><g transform="translate(148.425816, 226.641621)"><g><path d="M 1 0 C 0.96875 -0.0507812 0.960938 -0.109375 0.949219 -0.160156 C 0.890625 -0.550781 1 -0.917969 1 -1.308594 C 1.007812 -1.898438 1.007812 -2.488281 1.007812 -3.089844 C 1.007812 -3.9375 1.007812 -4.789062 1 -5.636719 C 1 -6 0.75 -7.019531 1.269531 -7.019531 L 10.835938 -6.988281 C 10.96875 -6.988281 11.105469 -6.976562 11.1875 -6.878906 C 11.238281 -6.808594 11.246094 -6.71875 11.246094 -6.628906 L 11.277344 -5.917969 C 11.277344 -5.796875 11.277344 -5.660156 11.175781 -5.578125 C 10.996094 -5.429688 10.71875 -5.488281 10.507812 -5.507812 C 10.21875 -5.527344 9.917969 -5.519531 9.617188 -5.519531 C 8.90625 -5.527344 8.1875 -5.527344 7.476562 -5.539062 C 6.058594 -5.546875 4.648438 -5.546875 3.238281 -5.558594 C 2.621094 -5.558594 2.800781 -4.898438 2.789062 -4.429688 C 2.78125 -4.277344 2.847656 -4.097656 3 -4.070312 C 3.21875 -4.019531 3.648438 -4.109375 3.910156 -4.109375 C 5.230469 -4.109375 6.546875 -4.117188 7.867188 -4.117188 C 8.527344 -4.128906 9.1875 -4.128906 9.847656 -4.140625 C 10.226562 -4.140625 11.335938 -4.390625 11.265625 -3.75 L 11.175781 -2.917969 C 11.175781 -2.871094 11.167969 -2.820312 11.136719 -2.789062 C 11.097656 -2.75 11.039062 -2.75 10.988281 -2.75 C 8.628906 -2.738281 6.257812 -2.738281 3.910156 -2.738281 C 3.667969 -2.738281 3.46875 -2.730469 3.238281 -2.800781 C 3.089844 -2.839844 2.898438 -2.847656 2.820312 -2.71875 C 2.699219 -2.5 2.757812 -2.1875 2.789062 -1.960938 C 2.820312 -1.699219 2.789062 -1.441406 3.121094 -1.441406 C 5.699219 -1.449219 8.277344 -1.460938 10.855469 -1.480469 C 11.367188 -1.480469 11.246094 -1.289062 11.246094 -0.917969 C 11.238281 -0.679688 11.40625 -0.289062 11.265625 -0.0703125 C 11.117188 0.191406 10.917969 -0.0117188 10.699219 -0.0117188 C 10.449219 -0.0117188 10.449219 -0.0195312 10.1875 -0.0195312 C 7.40625 -0.0195312 4.628906 0.0507812 1.847656 -0.0117188 C 1.710938 -0.0195312 1.558594 -0.0195312 1.417969 0.0195312 C 1.289062 0.0507812 1.121094 0.121094 1.019531 0.0195312 Z M 1 0 "/></g></g></g><g fill="#ed2323" fill-opacity="1"><g transform="translate(161.081001, 226.641621)"><g><path d="M 0.800781 -0.0195312 C 0.640625 -0.210938 0.75 -0.679688 0.75 -0.929688 C 0.75 -2.78125 0.75 -4.628906 0.738281 -6.488281 C 0.738281 -6.648438 0.71875 -6.886719 0.871094 -7 C 1.03125 -7.109375 1.25 -7.039062 1.417969 -7.019531 C 1.679688 -6.988281 1.941406 -6.976562 2.1875 -7 C 2.300781 -7.007812 2.410156 -7.027344 2.507812 -7.019531 C 2.988281 -6.957031 3.480469 -6.4375 3.859375 -6.179688 C 6.019531 -4.667969 8.1875 -3.179688 10.355469 -1.691406 C 10.46875 -1.609375 10.585938 -1.53125 10.675781 -1.429688 C 10.738281 -1.351562 10.917969 -1.121094 11.027344 -1.289062 C 11.066406 -1.339844 11.058594 -1.410156 11.046875 -1.46875 C 11.027344 -1.53125 10.996094 -1.578125 10.988281 -1.640625 C 10.945312 -1.75 10.945312 -1.871094 10.957031 -1.988281 C 11.007812 -3.480469 10.976562 -4.980469 10.976562 -6.476562 C 10.976562 -6.867188 10.808594 -7.117188 11.367188 -7.027344 C 11.71875 -6.976562 12.078125 -6.96875 12.4375 -7.039062 C 12.816406 -7.117188 12.9375 -6.96875 12.867188 -6.597656 C 12.707031 -5.769531 12.816406 -4.839844 12.816406 -4 C 12.828125 -3 12.847656 -2 12.847656 -1 C 12.847656 -0.75 12.835938 -0.75 12.835938 -0.5 C 12.835938 -0.378906 12.9375 -0.238281 12.90625 -0.121094 C 12.828125 0.210938 12.257812 0.0195312 12.027344 0.0117188 C 11.539062 -0.0195312 11.039062 -0.0117188 10.546875 0.03125 C 10.109375 0.0703125 9.777344 -0.199219 9.425781 -0.429688 C 8.976562 -0.738281 8.527344 -1.050781 8.066406 -1.359375 C 6.398438 -2.5 4.707031 -3.609375 3.027344 -4.738281 C 2.878906 -4.839844 2.558594 -5.386719 2.589844 -4.808594 C 2.628906 -4.050781 2.640625 -3.277344 2.640625 -2.519531 C 2.648438 -1.808594 2.507812 -0.949219 2.6875 -0.261719 C 2.75 -0.0390625 2.667969 0.0390625 2.449219 0.03125 C 2.007812 0.0195312 1.550781 -0.0507812 1.121094 0.0507812 C 0.960938 0.078125 0.859375 0.0507812 0.800781 -0.0195312 Z M 0.800781 -0.0195312 "/></g></g></g><g fill="#ed2323" fill-opacity="1"><g transform="translate(175.085661, 226.641621)"><g><path d="M 0.570312 -5.609375 C 0.667969 -5.519531 0.828125 -5.507812 0.96875 -5.507812 C 2.058594 -5.527344 3.140625 -5.546875 4.21875 -5.558594 C 4.289062 -5.558594 4.347656 -5.558594 4.410156 -5.539062 C 4.558594 -5.457031 4.578125 -5.257812 4.578125 -5.097656 C 4.539062 -3.558594 4.507812 -2.03125 4.480469 -0.488281 C 4.480469 -0.390625 4.480469 -0.28125 4.519531 -0.191406 C 4.617188 -0.03125 4.839844 0.0117188 5.027344 0.0117188 C 5.429688 0.03125 5.828125 0.0195312 6.226562 -0.03125 C 6.277344 -0.03125 6.328125 -0.0390625 6.359375 -0.0703125 C 6.398438 -0.109375 6.398438 -0.171875 6.398438 -0.21875 C 6.378906 -1.839844 6.359375 -3.460938 6.347656 -5.078125 C 6.347656 -5.199219 6.347656 -5.328125 6.417969 -5.417969 C 6.519531 -5.558594 6.71875 -5.570312 6.886719 -5.570312 C 8.089844 -5.546875 9.277344 -5.539062 10.476562 -5.519531 C 10.539062 -5.519531 10.617188 -5.519531 10.667969 -5.570312 C 10.726562 -5.617188 10.726562 -5.707031 10.726562 -5.789062 L 10.726562 -6.828125 C 10.726562 -6.878906 10.726562 -6.917969 10.699219 -6.949219 C 10.65625 -6.988281 10.605469 -6.988281 10.566406 -6.988281 C 7.289062 -7 4.019531 -7.007812 0.75 -7.007812 C 0.679688 -7.007812 0.609375 -7.007812 0.558594 -6.957031 C 0.53125 -6.917969 0.519531 -6.859375 0.519531 -6.808594 C 0.511719 -6.507812 0.5 -6.207031 0.480469 -5.910156 C 0.480469 -5.839844 0.480469 -5.757812 0.511719 -5.6875 C 0.53125 -5.660156 0.539062 -5.628906 0.570312 -5.609375 Z M 0.570312 -5.609375 "/></g></g></g><g fill="#ed2323" fill-opacity="1"><g transform="translate(186.741239, 226.641621)"><g/></g></g><g fill="#ed2323" fill-opacity="1"><g transform="translate(192.189267, 226.641621)"><g><path d="M 0.660156 -0.5 C 0.679688 -0.46875 0.71875 -0.449219 0.761719 -0.429688 C 2.019531 0.160156 3.460938 0.269531 4.847656 0.320312 C 6.410156 0.378906 8.007812 0.371094 9.476562 -0.160156 C 9.847656 -0.300781 10.226562 -0.480469 10.457031 -0.800781 C 10.617188 -1.007812 10.699219 -1.269531 10.757812 -1.519531 C 10.828125 -1.800781 10.867188 -2.089844 10.816406 -2.378906 C 10.738281 -2.839844 10.398438 -3.230469 9.996094 -3.480469 C 9.585938 -3.71875 9.117188 -3.839844 8.65625 -3.910156 C 6.828125 -4.199219 4.9375 -3.929688 3.121094 -4.277344 C 2.730469 -4.359375 2.269531 -4.539062 2.21875 -4.9375 C 2.1875 -5.167969 2.328125 -5.398438 2.519531 -5.539062 C 2.710938 -5.679688 2.949219 -5.75 3.179688 -5.796875 C 4.019531 -5.988281 4.890625 -6.046875 5.757812 -6.039062 C 6.1875 -6.039062 6.617188 -6.019531 7.046875 -5.976562 C 7.226562 -5.96875 7.398438 -6 7.566406 -5.96875 C 7.75 -5.9375 7.917969 -5.878906 8.089844 -5.828125 C 8.378906 -5.769531 8.65625 -5.6875 8.929688 -5.597656 C 9.457031 -5.410156 9.96875 -5.148438 10.367188 -4.75 C 10.367188 -5.238281 10.378906 -5.730469 10.386719 -6.21875 C 10.386719 -6.296875 10.386719 -6.367188 10.355469 -6.4375 C 10.316406 -6.519531 10.226562 -6.558594 10.148438 -6.597656 C 8.898438 -7.1875 7.46875 -7.269531 6.089844 -7.289062 C 4.789062 -7.308594 3.46875 -7.269531 2.21875 -6.929688 C 1.667969 -6.777344 1.128906 -6.558594 0.75 -6.128906 C 0.269531 -5.578125 0.179688 -4.71875 0.550781 -4.078125 C 0.820312 -3.609375 1.289062 -3.289062 1.789062 -3.109375 C 2.300781 -2.917969 2.839844 -2.871094 3.378906 -2.828125 C 4.820312 -2.738281 6.269531 -2.789062 7.71875 -2.679688 C 8.007812 -2.648438 8.316406 -2.621094 8.566406 -2.46875 C 8.828125 -2.320312 9.019531 -2.019531 8.957031 -1.730469 C 8.867188 -1.371094 8.457031 -1.199219 8.097656 -1.121094 C 7.40625 -0.960938 6.6875 -0.929688 5.976562 -0.910156 C 5.039062 -0.898438 4.089844 -0.917969 3.160156 -1.101562 C 2.230469 -1.28125 1.320312 -1.640625 0.578125 -2.230469 C 0.558594 -1.691406 0.570312 -1.160156 0.609375 -0.628906 C 0.621094 -0.589844 0.621094 -0.550781 0.640625 -0.519531 C 0.648438 -0.511719 0.648438 -0.5 0.660156 -0.5 Z M 0.660156 -0.5 "/></g></g></g><g fill="#ed2323" fill-opacity="1"><g transform="translate(203.854847, 226.641621)"><g><path d="M 1 0 C 0.96875 -0.0507812 0.960938 -0.109375 0.949219 -0.160156 C 0.890625 -0.550781 1 -0.917969 1 -1.308594 C 1.007812 -1.898438 1.007812 -2.488281 1.007812 -3.089844 C 1.007812 -3.9375 1.007812 -4.789062 1 -5.636719 C 1 -6 0.75 -7.019531 1.269531 -7.019531 L 10.835938 -6.988281 C 10.96875 -6.988281 11.105469 -6.976562 11.1875 -6.878906 C 11.238281 -6.808594 11.246094 -6.71875 11.246094 -6.628906 L 11.277344 -5.917969 C 11.277344 -5.796875 11.277344 -5.660156 11.175781 -5.578125 C 10.996094 -5.429688 10.71875 -5.488281 10.507812 -5.507812 C 10.21875 -5.527344 9.917969 -5.519531 9.617188 -5.519531 C 8.90625 -5.527344 8.1875 -5.527344 7.476562 -5.539062 C 6.058594 -5.546875 4.648438 -5.546875 3.238281 -5.558594 C 2.621094 -5.558594 2.800781 -4.898438 2.789062 -4.429688 C 2.78125 -4.277344 2.847656 -4.097656 3 -4.070312 C 3.21875 -4.019531 3.648438 -4.109375 3.910156 -4.109375 C 5.230469 -4.109375 6.546875 -4.117188 7.867188 -4.117188 C 8.527344 -4.128906 9.1875 -4.128906 9.847656 -4.140625 C 10.226562 -4.140625 11.335938 -4.390625 11.265625 -3.75 L 11.175781 -2.917969 C 11.175781 -2.871094 11.167969 -2.820312 11.136719 -2.789062 C 11.097656 -2.75 11.039062 -2.75 10.988281 -2.75 C 8.628906 -2.738281 6.257812 -2.738281 3.910156 -2.738281 C 3.667969 -2.738281 3.46875 -2.730469 3.238281 -2.800781 C 3.089844 -2.839844 2.898438 -2.847656 2.820312 -2.71875 C 2.699219 -2.5 2.757812 -2.1875 2.789062 -1.960938 C 2.820312 -1.699219 2.789062 -1.441406 3.121094 -1.441406 C 5.699219 -1.449219 8.277344 -1.460938 10.855469 -1.480469 C 11.367188 -1.480469 11.246094 -1.289062 11.246094 -0.917969 C 11.238281 -0.679688 11.40625 -0.289062 11.265625 -0.0703125 C 11.117188 0.191406 10.917969 -0.0117188 10.699219 -0.0117188 C 10.449219 -0.0117188 10.449219 -0.0195312 10.1875 -0.0195312 C 7.40625 -0.0195312 4.628906 0.0507812 1.847656 -0.0117188 C 1.710938 -0.0195312 1.558594 -0.0195312 1.417969 0.0195312 C 1.289062 0.0507812 1.121094 0.121094 1.019531 0.0195312 Z M 1 0 "/></g></g></g><g fill="#ed2323" fill-opacity="1"><g transform="translate(216.510032, 226.641621)"><g><path d="M 11.246094 -0.398438 C 10.855469 -0.789062 10.46875 -1.179688 10.097656 -1.578125 C 9.90625 -1.769531 9.738281 -1.96875 9.558594 -2.160156 C 9.378906 -2.328125 9.15625 -2.460938 9.007812 -2.660156 C 8.988281 -2.6875 8.96875 -2.71875 8.976562 -2.75 C 8.988281 -2.847656 9.457031 -2.878906 9.546875 -2.898438 C 9.757812 -2.960938 9.976562 -3.027344 10.167969 -3.148438 C 10.316406 -3.238281 10.46875 -3.347656 10.597656 -3.480469 C 10.667969 -3.558594 10.925781 -3.777344 10.925781 -3.898438 C 11.328125 -4.578125 11.296875 -5.507812 10.789062 -6.117188 C 10.476562 -6.488281 10.007812 -6.71875 9.539062 -6.839844 C 9.058594 -6.957031 8.558594 -6.96875 8.066406 -6.976562 C 5.789062 -7.039062 3.5 -7.039062 1.21875 -6.988281 C 1.148438 -6.988281 1.078125 -6.988281 1.039062 -6.9375 C 1 -6.898438 1 -6.828125 1 -6.777344 L 1 -3.1875 C 1 -2.589844 1 -1.988281 1 -1.398438 L 1 -0.5 C 1 -0.320312 0.859375 -0.0195312 1.109375 0.0507812 C 1.21875 0.078125 1.320312 0.0507812 1.429688 0.03125 C 1.800781 -0.0507812 2.1875 -0.0390625 2.558594 0.0390625 C 2.628906 0.0585938 2.699219 0.078125 2.757812 0.0585938 C 2.890625 0.0117188 2.910156 -0.160156 2.898438 -0.289062 C 2.898438 -0.699219 2.890625 -1.109375 2.878906 -1.507812 C 2.871094 -1.71875 2.871094 -1.929688 2.859375 -2.140625 C 2.859375 -2.28125 2.859375 -2.410156 2.847656 -2.550781 C 2.847656 -2.589844 2.847656 -2.640625 2.878906 -2.667969 C 2.96875 -2.757812 3.339844 -2.6875 3.46875 -2.6875 C 3.699219 -2.6875 3.917969 -2.699219 4.148438 -2.699219 C 4.570312 -2.699219 4.988281 -2.699219 5.398438 -2.710938 L 6.179688 -2.710938 C 6.378906 -2.71875 6.578125 -2.71875 6.777344 -2.648438 C 7.066406 -2.558594 7.289062 -2.320312 7.488281 -2.089844 L 9.046875 -0.398438 C 9.175781 -0.261719 9.308594 -0.109375 9.488281 -0.0390625 C 9.636719 0.0195312 9.808594 0.0195312 9.976562 0.0195312 L 11.46875 0.0195312 C 11.507812 0.0195312 11.558594 0.0117188 11.566406 -0.0195312 C 11.578125 -0.0585938 11.546875 -0.078125 11.527344 -0.109375 C 11.4375 -0.210938 11.335938 -0.300781 11.246094 -0.398438 Z M 6.097656 -4 L 5.648438 -4 C 4.796875 -4.007812 3.949219 -4.007812 3.097656 -4.007812 C 2.980469 -4.007812 2.878906 -4.039062 2.878906 -4.167969 C 2.878906 -4.480469 2.878906 -4.777344 2.871094 -5.089844 C 2.871094 -5.21875 2.78125 -5.597656 2.910156 -5.679688 C 2.96875 -5.730469 3.097656 -5.699219 3.179688 -5.699219 C 3.300781 -5.699219 3.417969 -5.679688 3.550781 -5.6875 L 4.070312 -5.6875 C 4.949219 -5.699219 5.820312 -5.6875 6.699219 -5.6875 C 7.25 -5.6875 7.796875 -5.699219 8.347656 -5.609375 C 8.585938 -5.570312 8.835938 -5.507812 9.039062 -5.359375 C 9.238281 -5.21875 9.378906 -4.957031 9.316406 -4.71875 C 9.289062 -4.558594 9.15625 -4.417969 9.019531 -4.328125 C 8.867188 -4.238281 8.707031 -4.1875 8.539062 -4.148438 C 7.757812 -3.96875 6.917969 -3.980469 6.097656 -4 Z M 6.097656 -4 "/></g></g></g><g fill="#ed2323" fill-opacity="1"><g transform="translate(229.045272, 226.641621)"><g><path d="M 11.1875 -6.988281 C 11.167969 -7.058594 11.105469 -7.089844 10.96875 -7.046875 C 10.65625 -6.949219 10.328125 -6.929688 10.015625 -7 C 9.886719 -7.027344 9.746094 -7.066406 9.609375 -7.039062 C 9.4375 -6.988281 9.328125 -6.816406 9.238281 -6.667969 C 8.667969 -5.707031 8.097656 -4.757812 7.527344 -3.808594 C 7.257812 -3.359375 7.007812 -2.898438 6.75 -2.4375 C 6.648438 -2.28125 5.976562 -0.949219 5.820312 -1.160156 C 5.546875 -1.480469 5.410156 -1.859375 5.1875 -2.21875 L 4.339844 -3.660156 C 3.769531 -4.617188 3.210938 -5.589844 2.648438 -6.546875 C 2.558594 -6.699219 2.460938 -6.847656 2.308594 -6.9375 C 2.167969 -7.019531 2 -7.019531 1.828125 -7.019531 C 1.488281 -7.019531 1.019531 -7.078125 0.691406 -6.988281 C 0.441406 -6.910156 0.878906 -6.367188 0.960938 -6.238281 C 1.140625 -5.929688 1.328125 -5.609375 1.507812 -5.296875 L 2.597656 -3.46875 C 2.910156 -2.9375 3.210938 -2.398438 3.527344 -1.878906 C 3.6875 -1.609375 3.859375 -1.351562 4.019531 -1.078125 C 4.148438 -0.859375 4.339844 -0.679688 4.449219 -0.449219 C 4.597656 -0.160156 4.6875 0.0507812 5.046875 0.0390625 L 6.789062 0.0117188 C 7.339844 0 7.597656 -0.820312 7.847656 -1.230469 C 8.21875 -1.859375 8.597656 -2.480469 8.96875 -3.109375 L 10.15625 -5.109375 C 10.398438 -5.507812 10.667969 -5.886719 10.898438 -6.289062 C 10.957031 -6.398438 11.21875 -6.808594 11.1875 -6.988281 Z M 11.1875 -6.988281 "/></g></g></g><g fill="#ed2323" fill-opacity="1"><g transform="translate(241.260637, 226.641621)"><g><path d="M 0.980469 -7.019531 C 0.988281 -7.027344 1 -7.046875 1.019531 -7.058594 C 1.230469 -7.207031 1.691406 -7 1.929688 -7 C 2.058594 -7 2.199219 -6.976562 2.328125 -6.988281 C 2.519531 -7 2.757812 -7.160156 2.890625 -6.949219 C 3.007812 -6.738281 2.859375 -6.238281 2.847656 -6 C 2.800781 -4.949219 2.808594 -3.890625 2.828125 -2.839844 L 2.859375 -1.257812 C 2.859375 -1 2.839844 -0.71875 2.871094 -0.46875 C 2.878906 -0.351562 2.949219 -0.160156 2.878906 -0.0390625 C 2.757812 0.160156 2.359375 0.0585938 2.179688 0.0390625 C 1.960938 0.0117188 1.71875 -0.0117188 1.5 0.0117188 C 1.339844 0.03125 1.050781 0.148438 0.96875 -0.0507812 C 0.929688 -0.140625 0.949219 -0.238281 0.960938 -0.328125 C 1.070312 -1.160156 1.03125 -1.988281 1.007812 -2.820312 C 0.988281 -3.46875 0.988281 -4.109375 0.988281 -4.757812 C 1 -5.167969 1.039062 -5.578125 1.03125 -5.976562 C 1.03125 -6.207031 0.828125 -6.847656 0.980469 -7.019531 Z M 0.980469 -7.019531 "/></g></g></g><g fill="#ed2323" fill-opacity="1"><g transform="translate(245.56912, 226.641621)"><g><path d="M 10.96875 -4.859375 C 11.046875 -4.890625 11.097656 -4.980469 11.085938 -5.1875 C 11.078125 -5.546875 11.058594 -5.898438 11.046875 -6.257812 C 11.046875 -6.339844 11.039062 -6.417969 11.007812 -6.488281 C 10.9375 -6.617188 10.65625 -6.679688 10.539062 -6.71875 C 10.378906 -6.777344 10.207031 -6.816406 10.039062 -6.867188 C 9.878906 -6.917969 9.707031 -6.9375 9.539062 -6.988281 C 9.027344 -7.109375 8.527344 -7.207031 8.007812 -7.25 C 7.839844 -7.269531 7.667969 -7.257812 7.488281 -7.269531 C 7.316406 -7.277344 7.148438 -7.308594 6.96875 -7.308594 C 6.796875 -7.308594 6.628906 -7.289062 6.457031 -7.277344 C 5.109375 -7.21875 3.6875 -6.949219 2.5 -6.289062 C 2.058594 -6.046875 1.628906 -5.699219 1.289062 -5.339844 C 1.167969 -5.207031 1.070312 -5.070312 0.96875 -4.9375 C 0.601562 -4.390625 0.378906 -3.660156 0.53125 -2.980469 C 0.570312 -2.820312 0.640625 -2.660156 0.710938 -2.5 C 1.289062 -1.199219 2.640625 -0.53125 3.929688 -0.128906 C 4.089844 -0.078125 4.25 -0.03125 4.417969 0.0117188 C 4.589844 0.0507812 4.757812 0.078125 4.929688 0.109375 C 5.949219 0.308594 6.96875 0.351562 8.007812 0.261719 C 8.179688 0.238281 8.359375 0.25 8.527344 0.230469 C 8.996094 0.160156 9.457031 0.0507812 9.90625 -0.0898438 C 10.167969 -0.171875 10.828125 -0.269531 10.976562 -0.511719 C 11.007812 -0.550781 11.015625 -0.601562 11.015625 -0.648438 C 11.046875 -1.140625 11.128906 -1.71875 11.039062 -2.199219 C 10.878906 -2.160156 10.738281 -2 10.585938 -1.898438 C 10.449219 -1.800781 10.308594 -1.691406 10.136719 -1.609375 C 9.046875 -1.039062 7.777344 -0.839844 6.558594 -0.910156 C 5.199219 -0.988281 3.558594 -1.351562 2.71875 -2.53125 C 2.28125 -3.140625 2.269531 -3.859375 2.710938 -4.46875 C 3.929688 -6.1875 6.75 -6.289062 8.597656 -5.917969 C 9.128906 -5.808594 9.667969 -5.636719 10.136719 -5.386719 C 10.296875 -5.296875 10.746094 -4.808594 10.96875 -4.859375 Z M 10.96875 -4.859375 "/></g></g></g><g fill="#ed2323" fill-opacity="1"><g transform="translate(257.534581, 226.641621)"><g><path d="M 1 0 C 0.96875 -0.0507812 0.960938 -0.109375 0.949219 -0.160156 C 0.890625 -0.550781 1 -0.917969 1 -1.308594 C 1.007812 -1.898438 1.007812 -2.488281 1.007812 -3.089844 C 1.007812 -3.9375 1.007812 -4.789062 1 -5.636719 C 1 -6 0.75 -7.019531 1.269531 -7.019531 L 10.835938 -6.988281 C 10.96875 -6.988281 11.105469 -6.976562 11.1875 -6.878906 C 11.238281 -6.808594 11.246094 -6.71875 11.246094 -6.628906 L 11.277344 -5.917969 C 11.277344 -5.796875 11.277344 -5.660156 11.175781 -5.578125 C 10.996094 -5.429688 10.71875 -5.488281 10.507812 -5.507812 C 10.21875 -5.527344 9.917969 -5.519531 9.617188 -5.519531 C 8.90625 -5.527344 8.1875 -5.527344 7.476562 -5.539062 C 6.058594 -5.546875 4.648438 -5.546875 3.238281 -5.558594 C 2.621094 -5.558594 2.800781 -4.898438 2.789062 -4.429688 C 2.78125 -4.277344 2.847656 -4.097656 3 -4.070312 C 3.21875 -4.019531 3.648438 -4.109375 3.910156 -4.109375 C 5.230469 -4.109375 6.546875 -4.117188 7.867188 -4.117188 C 8.527344 -4.128906 9.1875 -4.128906 9.847656 -4.140625 C 10.226562 -4.140625 11.335938 -4.390625 11.265625 -3.75 L 11.175781 -2.917969 C 11.175781 -2.871094 11.167969 -2.820312 11.136719 -2.789062 C 11.097656 -2.75 11.039062 -2.75 10.988281 -2.75 C 8.628906 -2.738281 6.257812 -2.738281 3.910156 -2.738281 C 3.667969 -2.738281 3.46875 -2.730469 3.238281 -2.800781 C 3.089844 -2.839844 2.898438 -2.847656 2.820312 -2.71875 C 2.699219 -2.5 2.757812 -2.1875 2.789062 -1.960938 C 2.820312 -1.699219 2.789062 -1.441406 3.121094 -1.441406 C 5.699219 -1.449219 8.277344 -1.460938 10.855469 -1.480469 C 11.367188 -1.480469 11.246094 -1.289062 11.246094 -0.917969 C 11.238281 -0.679688 11.40625 -0.289062 11.265625 -0.0703125 C 11.117188 0.191406 10.917969 -0.0117188 10.699219 -0.0117188 C 10.449219 -0.0117188 10.449219 -0.0195312 10.1875 -0.0195312 C 7.40625 -0.0195312 4.628906 0.0507812 1.847656 -0.0117188 C 1.710938 -0.0195312 1.558594 -0.0195312 1.417969 0.0195312 C 1.289062 0.0507812 1.121094 0.121094 1.019531 0.0195312 Z M 1 0 "/></g></g></g><g fill="#ed2323" fill-opacity="1"><g transform="translate(270.189766, 226.641621)"><g><path d="M 0.660156 -0.5 C 0.679688 -0.46875 0.71875 -0.449219 0.761719 -0.429688 C 2.019531 0.160156 3.460938 0.269531 4.847656 0.320312 C 6.410156 0.378906 8.007812 0.371094 9.476562 -0.160156 C 9.847656 -0.300781 10.226562 -0.480469 10.457031 -0.800781 C 10.617188 -1.007812 10.699219 -1.269531 10.757812 -1.519531 C 10.828125 -1.800781 10.867188 -2.089844 10.816406 -2.378906 C 10.738281 -2.839844 10.398438 -3.230469 9.996094 -3.480469 C 9.585938 -3.71875 9.117188 -3.839844 8.65625 -3.910156 C 6.828125 -4.199219 4.9375 -3.929688 3.121094 -4.277344 C 2.730469 -4.359375 2.269531 -4.539062 2.21875 -4.9375 C 2.1875 -5.167969 2.328125 -5.398438 2.519531 -5.539062 C 2.710938 -5.679688 2.949219 -5.75 3.179688 -5.796875 C 4.019531 -5.988281 4.890625 -6.046875 5.757812 -6.039062 C 6.1875 -6.039062 6.617188 -6.019531 7.046875 -5.976562 C 7.226562 -5.96875 7.398438 -6 7.566406 -5.96875 C 7.75 -5.9375 7.917969 -5.878906 8.089844 -5.828125 C 8.378906 -5.769531 8.65625 -5.6875 8.929688 -5.597656 C 9.457031 -5.410156 9.96875 -5.148438 10.367188 -4.75 C 10.367188 -5.238281 10.378906 -5.730469 10.386719 -6.21875 C 10.386719 -6.296875 10.386719 -6.367188 10.355469 -6.4375 C 10.316406 -6.519531 10.226562 -6.558594 10.148438 -6.597656 C 8.898438 -7.1875 7.46875 -7.269531 6.089844 -7.289062 C 4.789062 -7.308594 3.46875 -7.269531 2.21875 -6.929688 C 1.667969 -6.777344 1.128906 -6.558594 0.75 -6.128906 C 0.269531 -5.578125 0.179688 -4.71875 0.550781 -4.078125 C 0.820312 -3.609375 1.289062 -3.289062 1.789062 -3.109375 C 2.300781 -2.917969 2.839844 -2.871094 3.378906 -2.828125 C 4.820312 -2.738281 6.269531 -2.789062 7.71875 -2.679688 C 8.007812 -2.648438 8.316406 -2.621094 8.566406 -2.46875 C 8.828125 -2.320312 9.019531 -2.019531 8.957031 -1.730469 C 8.867188 -1.371094 8.457031 -1.199219 8.097656 -1.121094 C 7.40625 -0.960938 6.6875 -0.929688 5.976562 -0.910156 C 5.039062 -0.898438 4.089844 -0.917969 3.160156 -1.101562 C 2.230469 -1.28125 1.320312 -1.640625 0.578125 -2.230469 C 0.558594 -1.691406 0.570312 -1.160156 0.609375 -0.628906 C 0.621094 -0.589844 0.621094 -0.550781 0.640625 -0.519531 C 0.648438 -0.511719 0.648438 -0.5 0.660156 -0.5 Z M 0.660156 -0.5 "/></g></g></g><g fill="#ed2323" fill-opacity="1"><g transform="translate(281.865461, 226.641621)"><g/></g></g><path stroke-linecap="butt" transform="matrix(0.75, 0, 0, 0.75, 293.038197, 222.141636)" fill="none" stroke-linejoin="miter" d="M 0.00115366 0.998652 L 13.855321 0.998652 " stroke="#ffffff" stroke-width="2" stroke-opacity="1" stroke-miterlimit="4"/><path stroke-linecap="butt" transform="matrix(0.75, 0, 0, 0.75, 76.765905, 221.391636)" fill="none" stroke-linejoin="miter" d="M -0.000373412 0.998652 L 13.853794 0.998652 " stroke="#ffffff" stroke-width="2" stroke-opacity="1" stroke-miterlimit="4"/></svg>